<svg xmlns="http://www.w3.org/2000/svg" version="1.1" xmlns:xlink="http://www.w3.org/1999/xlink" xmlns:svgjs="http://svgjs.dev/svgjs" width="128" height="128" viewBox="0 0 128 128"><g transform="matrix(0.8046875,0,0,0.8046875,12.204265230973661,-4.081938624962177)"><svg viewBox="0 0 91 104" data-background-color="#a44a0c" preserveAspectRatio="xMidYMid meet" height="146" width="128" xmlns="http://www.w3.org/2000/svg" xmlns:xlink="http://www.w3.org/1999/xlink"><g id="tight-bounds" transform="matrix(1,0,0,1,0.26128023282909396,8.267772774005621)"><svg viewBox="0 0 88.85443778762891 95.481" height="95.481" width="88.85443778762891"><g><svg viewBox="0 0 88.85443778762891 95.481" height="95.481" width="88.85443778762891"><g><svg viewBox="0 0 88.85443778762891 95.481" height="95.481" width="88.85443778762891"><g id="textblocktransform"><svg viewBox="0 0 88.85443778762891 95.481" height="95.481" width="88.85443778762891" id="textblock"><g><svg viewBox="0 0 88.85443778762891 95.481" height="95.481" width="88.85443778762891"><g><svg viewBox="0 0 88.85443778762891 95.481" height="95.481" width="88.85443778762891"><g><svg xmlns="http://www.w3.org/2000/svg" viewBox="14.6 11.862548045595165 70.87600324411017 76.16177463105942" x="0" y="0" height="95.481" width="88.85443778762891" class="icon-icon-0" data-fill-palette-color="accent" id="icon-0"><path d="M30.523 37.608A29 29 0 0 1 33.214 25.4H14.6V80.642H56.8V66.664A29.243 29.243 0 0 1 30.523 37.608M33.988 37.608A25.78 25.78 0 0 0 56.8 63.179V25.4H37.076A25.6 25.6 0 0 0 33.988 37.608M48.688 35.682A2.405 2.405 0 1 1 46.282 38.087 2.4 2.4 0 0 1 48.685 35.682ZM48.688 46.74A2.405 2.405 0 1 1 46.282 49.145 2.4 2.4 0 0 1 48.685 46.74ZM45.08 43.377A2.406 2.406 0 1 1 42.675 40.971 2.41 2.41 0 0 1 45.077 43.377ZM41.714 31.116A2.406 2.406 0 1 1 39.308 33.521 2.4 2.4 0 0 1 41.714 31.116M85.476 37.608A25.731 25.731 0 0 0 39.329 21.934H58.529A1.73 1.73 0 0 1 60.261 23.666V63.342A25.775 25.775 0 0 0 85.476 37.608M74.714 62.669A29 29 0 0 1 69.363 65.176L79.351 86.324A2.92 2.92 0 0 0 81.022 87.842 2.88 2.88 0 0 0 83.274 87.742 2.964 2.964 0 0 0 84.691 83.808Z" fill="#000000" data-fill-palette-color="accent"></path></svg></g></svg></g></svg></g></svg></g></svg></g><g></g></svg></g><defs></defs></svg><rect width="88.85443778762891" height="95.481" fill="none" stroke="none" visibility="hidden"></rect></g></svg></g></svg>